<svg width="36" height="36" viewBox="0 0 36 36" fill="none" xmlns="http://www.w3.org/2000/svg">
<g clip-path="url(#clip0_399_1492)">
<path d="M30.2677 5.05188H3.48539C1.56354 5.05188 0 6.61542 0 8.53734V9.01012C0 10.932 1.56354 12.4955 3.48539 12.4955H30.2678C30.3373 12.4955 30.406 12.4819 30.4702 12.4553C30.5344 12.4287 30.5926 12.3898 30.6417 12.3407C30.6908 12.2916 30.7298 12.2333 30.7564 12.1691C30.7829 12.105 30.7966 12.0362 30.7966 11.9668V5.58063C30.7966 5.51118 30.7829 5.44241 30.7563 5.37825C30.7297 5.31409 30.6908 5.2558 30.6417 5.2067C30.5926 5.1576 30.5343 5.11865 30.4701 5.09209C30.4059 5.06552 30.3372 5.05186 30.2677 5.05188Z" fill="#7C3D1E"/>
<path d="M0.144352 7.54642C0.0485867 7.86801 -3.64437e-05 8.20179 2.04941e-08 8.53734V9.01012C2.04941e-08 10.932 1.56354 12.4955 3.48539 12.4955H30.2678C30.3373 12.4955 30.406 12.4818 30.4702 12.4553C30.5344 12.4287 30.5926 12.3898 30.6417 12.3407C30.6908 12.2916 30.7298 12.2333 30.7564 12.1691C30.7829 12.105 30.7966 12.0362 30.7966 11.9668V10.039H3.48539C1.90547 10.0389 0.571922 8.98748 0.144352 7.54642Z" fill="#68321A"/>
<path d="M16.853 3.4259L14.8443 1.41722C14.7451 1.31808 14.6106 1.2624 14.4704 1.2624C14.3301 1.2624 14.1956 1.31808 14.0964 1.41722L3.92095 11.5927C3.847 11.6667 3.79664 11.7609 3.77626 11.8635C3.75587 11.966 3.76636 12.0724 3.80641 12.169C3.84643 12.2656 3.9142 12.3482 4.00116 12.4063C4.08812 12.4644 4.19036 12.4954 4.29495 12.4954H8.31239C8.45263 12.4954 8.58712 12.4397 8.68631 12.3406L16.8531 4.17382C16.9523 4.07463 17.008 3.94011 17.008 3.79985C17.0079 3.65959 16.9522 3.52508 16.853 3.4259Z" fill="#78AA17"/>
<path d="M5.45072 10.063L3.92108 11.5927C3.84712 11.6667 3.79677 11.7609 3.77638 11.8635C3.75599 11.966 3.76649 12.0724 3.80654 12.169C3.84655 12.2656 3.91432 12.3482 4.00128 12.4063C4.08824 12.4644 4.19048 12.4954 4.29507 12.4954H8.31251C8.45275 12.4954 8.58724 12.4397 8.68644 12.3406L10.9639 10.0631L5.45072 10.063Z" fill="#6D8915"/>
<path d="M29.0372 11.5927L18.8618 1.41722C18.7626 1.31808 18.6281 1.26239 18.4878 1.26239C18.3476 1.26239 18.2131 1.31808 18.1139 1.41722L7.93847 11.5927C7.86452 11.6667 7.81416 11.7609 7.79377 11.8635C7.77339 11.966 7.78388 12.0724 7.82393 12.169C7.86394 12.2656 7.93172 12.3482 8.01868 12.4063C8.10563 12.4644 8.20787 12.4954 8.31246 12.4954H28.6634C28.768 12.4954 28.8703 12.4644 28.9572 12.4063C29.0442 12.3482 29.112 12.2656 29.152 12.169C29.192 12.0723 29.2024 11.966 29.182 11.8634C29.1616 11.7608 29.1112 11.6666 29.0372 11.5927Z" fill="#8ACC19"/>
<path d="M7.93847 11.5927C7.86452 11.6667 7.81416 11.7609 7.79377 11.8635C7.77339 11.966 7.78388 12.0724 7.82393 12.169C7.86394 12.2656 7.93172 12.3482 8.01868 12.4063C8.10563 12.4644 8.20787 12.4954 8.31246 12.4954H28.6634C28.768 12.4955 28.8703 12.4645 28.9573 12.4064C29.0443 12.3483 29.1121 12.2657 29.1521 12.1691C29.1922 12.0724 29.2026 11.9661 29.1822 11.8635C29.1618 11.7609 29.1114 11.6666 29.0374 11.5927L27.5078 10.063H9.46812L7.93847 11.5927Z" fill="#78A017"/>
<path d="M26.0306 11.5927L20.3812 5.94323C20.282 5.84412 20.1475 5.78844 20.0072 5.78844C19.867 5.78844 19.7325 5.84412 19.6333 5.94323C19.4843 6.09311 19.3071 6.21193 19.1118 6.29282C18.9166 6.3737 18.7072 6.41505 18.4959 6.41447C18.2845 6.41506 18.0752 6.37372 17.8799 6.29284C17.6847 6.21197 17.5074 6.09316 17.3584 5.94331C17.2593 5.84415 17.1248 5.78843 16.9845 5.78842C16.8443 5.78841 16.7098 5.84409 16.6106 5.94323L10.9611 11.5927C10.8872 11.6667 10.8368 11.7609 10.8164 11.8635C10.796 11.966 10.8065 12.0724 10.8466 12.169C10.8866 12.2656 10.9544 12.3482 11.0413 12.4063C11.1283 12.4644 11.2305 12.4954 11.3351 12.4954H25.6567C25.7613 12.4955 25.8636 12.4645 25.9505 12.4063C26.0375 12.3482 26.1053 12.2656 26.1453 12.169C26.1853 12.0724 26.1958 11.966 26.1754 11.8634C26.1549 11.7609 26.1045 11.6666 26.0306 11.5927Z" fill="#78A017"/>
<path d="M10.9612 11.5927C10.8872 11.6667 10.8369 11.7609 10.8165 11.8635C10.7961 11.966 10.8066 12.0724 10.8466 12.169C10.8866 12.2656 10.9544 12.3482 11.0414 12.4063C11.1283 12.4644 11.2306 12.4954 11.3352 12.4954H25.6568C25.7613 12.4954 25.8636 12.4644 25.9505 12.4063C26.0375 12.3482 26.1052 12.2656 26.1453 12.169C26.1853 12.0724 26.1958 11.966 26.1754 11.8635C26.155 11.7609 26.1047 11.6667 26.0308 11.5927L24.5011 10.063H12.4908L10.9612 11.5927Z" fill="#6D8915"/>
<path d="M33.5534 11.4379H2.85947C1.341 11.4379 0.099 10.2567 0.0005625 8.76311C0.000492188 8.76663 0 8.77015 0 8.77387V31.0159C0 33.0681 1.66957 34.7377 3.72178 34.7377H33.5535C33.6229 34.7377 33.6917 34.724 33.7558 34.6974C33.82 34.6709 33.8783 34.6319 33.9274 34.5828C33.9765 34.5337 34.0154 34.4754 34.042 34.4113C34.0686 34.3471 34.0822 34.2784 34.0822 34.2089V11.9666C34.0822 11.8972 34.0685 11.8284 34.042 11.7643C34.0154 11.7001 33.9764 11.6418 33.9273 11.5927C33.8782 11.5436 33.8199 11.5047 33.7558 11.4781C33.6916 11.4515 33.6228 11.4379 33.5534 11.4379Z" fill="#AA5D24"/>
<path d="M34.0822 20.5203H28.3908C26.265 20.5203 24.5355 22.2498 24.5355 24.3757C24.5355 26.5014 26.2649 28.231 28.3908 28.231H34.0822V20.5203Z" fill="#7C3D1E"/>
<path d="M34.4137 19.1623H28.3907C26.2649 19.1623 24.5354 20.8917 24.5354 23.0176C24.5354 25.1434 26.2648 26.8729 28.3907 26.8729H34.4137C35.2884 26.8729 36 26.1613 36 25.2866V20.7487C36 19.8739 35.2884 19.1623 34.4137 19.1623Z" fill="#F99608"/>
<path d="M28.8385 21.2926C27.8874 21.2926 27.1136 22.0664 27.1136 23.0175C27.1136 23.9685 27.8874 24.7423 28.8385 24.7423C29.7895 24.7423 30.5634 23.9685 30.5634 23.0175C30.5634 22.0664 29.7895 21.2926 28.8385 21.2926Z" fill="#FFD039"/>
</g>
<defs>
<clipPath id="clip0_399_1492">
<rect width="36" height="36" fill="white"/>
</clipPath>
</defs>
</svg>
