<svg width="28" height="28" viewBox="0 0 28 28" fill="none" xmlns="http://www.w3.org/2000/svg">
<g clip-path="url(#clip0_370_1018)">
<path d="M26.1381 14.3626C26.0825 14.2498 26.0536 14.1257 26.0536 14C26.0536 13.8742 26.0825 13.7501 26.1381 13.6373L27.1824 11.501C27.7638 10.3115 27.3031 8.8937 26.1336 8.27317L24.0331 7.15864C23.9218 7.10005 23.8255 7.01667 23.7515 6.91493C23.6776 6.8132 23.6281 6.69583 23.6067 6.5719L23.1959 4.22971C22.9671 2.92564 21.7609 2.04933 20.4502 2.23477L18.0957 2.56782C17.9713 2.58581 17.8443 2.57495 17.7247 2.53608C17.6051 2.49722 17.4961 2.43138 17.406 2.34365L15.6969 0.690351C14.7453 -0.230253 13.2545 -0.230307 12.303 0.690351L10.5939 2.34382C10.5038 2.43152 10.3947 2.49735 10.2751 2.53621C10.1555 2.57508 10.0286 2.58595 9.90413 2.56798L7.54969 2.23494C6.23856 2.04938 5.03271 2.9258 4.80395 4.22987L4.39314 6.57196C4.37179 6.69589 4.32225 6.81325 4.24833 6.915C4.17442 7.01674 4.07812 7.10014 3.96686 7.15875L1.86632 8.27328C0.696781 8.89376 0.236096 10.3116 0.81753 11.5011L1.86178 13.6374C1.91737 13.7502 1.94628 13.8743 1.94628 14.0001C1.94628 14.1259 1.91737 14.2499 1.86178 14.3627L0.817475 16.499C0.236041 17.6885 0.696726 19.1063 1.86627 19.7268L3.9668 20.8414C4.07807 20.9 4.17439 20.9833 4.24831 21.0851C4.32224 21.1868 4.37179 21.3042 4.39314 21.4281L4.80395 23.7703C5.0122 24.9575 6.03015 25.79 7.20007 25.7899C7.3153 25.7899 7.43222 25.7818 7.54974 25.7652L9.90419 25.4321C10.0287 25.4141 10.1556 25.425 10.2752 25.4639C10.3948 25.5027 10.5039 25.5686 10.594 25.6563L12.303 27.3096C12.7789 27.77 13.3893 28.0001 13.9999 28C14.6104 28 15.2212 27.7699 15.6969 27.3096L17.406 25.6563C17.5904 25.478 17.8417 25.3965 18.0957 25.4321L20.4502 25.7652C21.7615 25.9507 22.9671 25.0743 23.1959 23.7703L23.6068 21.4282C23.6281 21.3042 23.6777 21.1869 23.7516 21.0851C23.8255 20.9834 23.9218 20.9 24.0331 20.8414L26.1336 19.7268C27.3031 19.1064 27.7638 17.6885 27.1824 16.499L26.1381 14.3626ZM25.3767 18.3002L23.2761 19.4147C22.6064 19.7702 22.1471 20.4022 22.0161 21.149L21.6053 23.4912C21.5691 23.7026 21.4517 23.8915 21.2781 24.0176C21.1046 24.1437 20.8886 24.197 20.6764 24.1661L18.3219 23.8331C17.5711 23.7267 16.8281 23.9684 16.2831 24.4955L14.574 26.1488C14.4204 26.2985 14.2144 26.3823 13.9999 26.3823C13.7854 26.3823 13.5794 26.2985 13.4258 26.1488L11.7167 24.4955C11.2562 24.0499 10.6541 23.8085 10.0255 23.8085C9.91031 23.8085 9.79421 23.8166 9.67795 23.833L7.3235 24.1661C7.11122 24.1969 6.8953 24.1436 6.72176 24.0175C6.54823 23.8914 6.43081 23.7025 6.39453 23.4911L5.98366 21.1489C5.85263 20.4021 5.39337 19.77 4.72362 19.4147L2.62308 18.3002C2.43318 18.2004 2.28978 18.0304 2.22348 17.8263C2.15719 17.6223 2.17324 17.4005 2.26822 17.2081L3.31252 15.0718C3.64546 14.3906 3.64546 13.6093 3.31252 12.9281L2.26822 10.7918C2.17324 10.5994 2.15719 10.3776 2.22348 10.1736C2.28978 9.96955 2.43318 9.79951 2.62308 9.69974L4.72362 8.58521C5.39332 8.2298 5.85263 7.59773 5.98361 6.85092L6.39442 4.50877C6.43064 4.29733 6.54805 4.10842 6.7216 3.98232C6.89515 3.85623 7.1111 3.80294 7.32339 3.83383L9.67784 4.16687C10.4284 4.27313 11.1717 4.03157 11.7166 3.50444L13.4257 1.85114C13.5793 1.70141 13.7853 1.6176 13.9998 1.6176C14.2144 1.6176 14.4204 1.70141 14.574 1.85114L16.283 3.50444C16.828 4.03163 17.5711 4.27313 18.3218 4.16687L20.6763 3.83383C20.8885 3.80297 21.1045 3.85627 21.278 3.98236C21.4516 4.10845 21.569 4.29735 21.6052 4.50877L22.016 6.85097C22.1471 7.59778 22.6063 8.22991 23.2761 8.58521L25.3766 9.69974C25.5665 9.79951 25.7099 9.96955 25.7762 10.1736C25.8425 10.3776 25.8265 10.5994 25.7315 10.7918L24.6872 12.9281C24.3542 13.6092 24.3542 14.3906 24.6872 15.0717L25.7315 17.208C25.8265 17.4004 25.8426 17.6223 25.7763 17.8263C25.71 18.0303 25.5666 18.2004 25.3767 18.3002Z" fill="white"/>
<path d="M19.8998 8.10003C19.5845 7.7847 19.0732 7.7847 18.7579 8.10003L8.09993 18.758C7.78461 19.0733 7.78461 19.5846 8.09993 19.8999C8.17483 19.975 8.26382 20.0346 8.3618 20.0752C8.45978 20.1158 8.56481 20.1366 8.67087 20.1365C8.87748 20.1365 9.08419 20.0577 9.2418 19.8999L19.8997 9.24201C20.2152 8.92663 20.2152 8.41541 19.8998 8.10003ZM10.77 6.73285C9.13751 6.73285 7.80933 8.06104 7.80933 9.69356C7.80933 11.3261 9.13751 12.6543 10.77 12.6543C12.4026 12.6543 13.7307 11.3261 13.7307 9.69356C13.7307 8.06104 12.4026 6.73285 10.77 6.73285ZM10.77 11.0393C10.028 11.0393 9.42429 10.4356 9.42429 9.6935C9.42429 8.95145 10.028 8.34776 10.77 8.34776C11.5121 8.34776 12.1158 8.95145 12.1158 9.6935C12.1158 10.4356 11.5121 11.0393 10.77 11.0393ZM17.2297 15.3458C15.5972 15.3458 14.269 16.6739 14.269 18.3065C14.269 19.939 15.5972 21.2672 17.2297 21.2672C18.8622 21.2672 20.1904 19.939 20.1904 18.3065C20.1904 16.6739 18.8622 15.3458 17.2297 15.3458ZM17.2297 19.6522C16.4876 19.6522 15.8839 19.0485 15.8839 18.3065C15.8839 17.5644 16.4876 16.9607 17.2297 16.9607C17.9717 16.9607 18.5754 17.5644 18.5754 18.3065C18.5754 19.0485 17.9717 19.6522 17.2297 19.6522Z" fill="white"/>
</g>
<defs>
<clipPath id="clip0_370_1018">
<rect width="28" height="28" fill="white"/>
</clipPath>
</defs>
</svg>
