<svg width="28" height="28" viewBox="0 0 28 28" fill="none" xmlns="http://www.w3.org/2000/svg">
<path d="M10.6678 24.2458V20.6678C10.6678 19.7611 11.405 19.0245 12.3183 19.0188H15.6715C16.5888 19.0188 17.3324 19.7571 17.3324 20.6678V24.2354C17.3324 25.0218 17.9714 25.6609 18.7635 25.6666H21.0512C22.1197 25.6694 23.1453 25.2499 23.9018 24.5008C24.6583 23.7517 25.0834 22.7345 25.0834 21.6738V11.5101C25.0834 10.6533 24.7008 9.84048 24.0388 9.29073L16.2669 3.11996C14.9083 2.04062 12.968 2.07549 11.6497 3.20293L4.04493 9.29073C3.35161 9.82427 2.93723 10.6395 2.91675 11.5101V21.6634C2.91675 23.8743 4.72203 25.6666 6.94895 25.6666H9.18442C9.56578 25.6694 9.93248 25.5209 10.2031 25.2541C10.4738 24.9874 10.626 24.6244 10.626 24.2458H10.6678Z" fill="#F05C82"/>
</svg>
