<svg width="28" height="28" viewBox="0 0 28 28" fill="none" xmlns="http://www.w3.org/2000/svg">
<g clip-path="url(#clip0_399_1440)">
<path d="M26.3594 13.4117V10.1106C26.3594 8.48875 25.0689 7.16339 23.4609 7.10553V5.07931C23.4609 4.02389 22.6023 3.16525 21.5469 3.16525H16.2773L15.5968 1.27377C15.4233 0.791425 15.0721 0.405987 14.6079 0.188495C14.1437 -0.0290516 13.6228 -0.0522391 13.1411 0.123089L3.57875 3.60346C3.09761 3.77857 2.71376 4.1307 2.49785 4.595C2.28195 5.05929 2.26002 5.57975 2.43616 6.06057L2.82034 7.1092C1.2489 7.20638 0 8.51505 0 10.1106V24.9856C0 26.6441 1.3493 27.9934 3.00781 27.9934H23.3516C25.0101 27.9934 26.3594 26.6441 26.3594 24.9856V21.5751C27.2857 21.442 28 20.6434 28 19.6809V15.3059C28 14.3433 27.2857 13.5448 26.3594 13.4117ZM26.3594 19.6809C26.3594 19.8316 26.2367 19.9543 26.0859 19.9543H21.7109C20.354 19.9543 19.25 18.8503 19.25 17.4934C19.25 16.1364 20.354 15.0324 21.7109 15.0324H26.0859C26.2367 15.0324 26.3594 15.1551 26.3594 15.3059V19.6809ZM3.97666 5.49619C3.96422 5.46244 3.95859 5.42655 3.9601 5.39061C3.96161 5.35467 3.97023 5.31938 3.98546 5.28679C4.00058 5.25415 4.022 5.22483 4.04851 5.20052C4.07502 5.17621 4.10608 5.15739 4.1399 5.14515L13.7022 1.66478C13.7951 1.63104 13.8733 1.65614 13.9118 1.67414C13.9502 1.69213 14.0196 1.73621 14.053 1.82917L14.5338 3.1653H14.1641C13.1086 3.1653 12.25 4.02395 12.25 5.07936V7.1028H4.56526L3.97666 5.49619ZM21.8203 5.07931V7.10275H13.8906V5.07931C13.8906 4.92853 14.0133 4.80587 14.1641 4.80587H21.5469C21.6976 4.80587 21.8203 4.92853 21.8203 5.07931ZM23.3516 26.3527H3.00781C2.25395 26.3527 1.64062 25.7394 1.64062 24.9856V10.1106C1.64062 9.35669 2.25395 8.74337 3.00781 8.74337H23.3516C24.1054 8.74337 24.7188 9.35669 24.7188 10.1106V13.3918H21.7109C19.4493 13.3918 17.6094 15.2318 17.6094 17.4934C17.6094 19.755 19.4493 21.5949 21.7109 21.5949H24.7188V24.9856C24.7188 25.7394 24.1054 26.3527 23.3516 26.3527Z" fill="white"/>
<path d="M21.7109 18.3137C22.164 18.3137 22.5312 17.9464 22.5312 17.4933C22.5312 17.0403 22.164 16.673 21.7109 16.673C21.2579 16.673 20.8906 17.0403 20.8906 17.4933C20.8906 17.9464 21.2579 18.3137 21.7109 18.3137Z" fill="white"/>
</g>
<defs>
<clipPath id="clip0_399_1440">
<rect width="28" height="28" fill="white"/>
</clipPath>
</defs>
</svg>
